HIERARCHY
ROOT Hips
{
	OFFSET 0.00 0.00 0.00
	CHANNELS 6 Xposition Yposition Zposition Xrotation Yrotation Zrotation
	JOINT Spine
	{
		OFFSET 0.00000 7.50895 0.00000
		CHANNELS 3 Xrotation Yrotation Zrotation
		JOINT Head
		{
			OFFSET 0.00000 13.86115 0.00000
			CHANNELS 3 Xrotation Yrotation Zrotation
			End Site
			{
				OFFSET 0.00000 4.52755 0.00000
			}
		}
		JOINT LeftShoulder
		{
			OFFSET 0.00000 8.20478 0.00000
			CHANNELS 3 Xrotation Yrotation Zrotation
			JOINT LeftArm
			{
				OFFSET 6.63596 0.00000 0.00000
				CHANNELS 3 Xrotation Yrotation Zrotation
				JOINT LeftForeArm
				{
					OFFSET 10.27422 0.00000 0.00000
					CHANNELS 3 Yrotation Zrotation Xrotation
					JOINT LeftHand
					{
						OFFSET 8.52215 0.00000 0.00000
						CHANNELS 3 Xrotation Yrotation Zrotation
						JOINT LeftHandThumb1
						{
							OFFSET 0.00000 0.00000 0.00000
							CHANNELS 3 Xrotation Zrotation Yrotation
							End Site
							{
								OFFSET 0.00000 0.00000 3.93700
							}
						}
						End Site
						{
							OFFSET 3.93700 0.00000 0.00000
						}
					}
				}
			}
		}
		JOINT RightShoulder
		{
			OFFSET 0.00000 8.20478 0.00000
			CHANNELS 3 Xrotation Yrotation Zrotation
			JOINT RightArm
			{
				OFFSET -6.63596 0.00000 0.00000
				CHANNELS 3 Xrotation Yrotation Zrotation
				JOINT RightForeArm
				{
					OFFSET -10.27422 0.00000 0.00000
					CHANNELS 3 Yrotation Zrotation Xrotation
					JOINT RightHand
					{
						OFFSET -8.52215 0.00000 0.00000
						CHANNELS 3 Xrotation Yrotation Zrotation
						JOINT RightHandThumb1
						{
							OFFSET 0.00000 0.00000 0.00000
							CHANNELS 3 Xrotation Zrotation Yrotation
							End Site
							{
								OFFSET 0.00000 0.00000 3.93700
							}
						}
						End Site
						{
							OFFSET -3.93700 0.00000 0.00000
						}
					}
				}
			}
		}
	}
	JOINT LeftUpLeg
	{
		OFFSET 3.00056 0.00000 0.00000
		CHANNELS 3 Xrotation Yrotation Zrotation
		JOINT LeftLeg
		{
			OFFSET 0.00000 -16.49085 0.00000
			CHANNELS 3 Xrotation Yrotation Zrotation
			JOINT LeftFoot
			{
				OFFSET 0.00000 -14.55658 0.00000
				CHANNELS 3 Xrotation Yrotation Zrotation
				JOINT LeftToeBase
				{
					OFFSET 0.00000 -1.25038 4.66650
					CHANNELS 3 Xrotation Yrotation Zrotation
					End Site
					{
						OFFSET 0.00000 0.00000 2.95275
					}
				}
			}
		}
	}
	JOINT RightUpLeg
	{
		OFFSET -3.00056 0.00000 0.00000
		CHANNELS 3 Xrotation Yrotation Zrotation
		JOINT RightLeg
		{
			OFFSET 0.00000 -16.49085 0.00000
			CHANNELS 3 Xrotation Yrotation Zrotation
			JOINT RightFoot
			{
				OFFSET 0.00000 -14.55658 0.00000
				CHANNELS 3 Xrotation Yrotation Zrotation
				JOINT RightToeBase
				{
					OFFSET 0.00000 -1.25038 4.66650
					CHANNELS 3 Xrotation Yrotation Zrotation
					End Site
					{
						OFFSET 0.00000 0.00000 2.95275
					}
				}
			}
		}
	}
}
MOTION
Frames: 9
Frame Time: 0.008333
 0.4610 32.3640 -2.9218 14.5780 -38.7061 5.6154 -3.3809 5.7827 -11.1634 10.5717 -18.3317 20.6790 11.5743 13.4332 20.7512 -26.0430 12.9558 -78.7820 -129.5565 -0.0000 41.9630 -12.8563 43.6903 18.2836 33.1476 -0.0000 26.2537 -18.3820 -13.6559 -19.6000 14.9654 14.0180 89.7619 28.1760 0.0000 20.4519 0.1068 -2.5044 2.4430 32.8623 0.0000 -24.3270 -10.3545 17.2781 -7.5390 5.6122 0.0000 -0.0000 -22.2881 33.4928 14.5231 4.2930 0.0000 0.0000 -47.0491 -32.9565 -32.9703 105.6484 -0.0000 0.0000 25.9750 -20.0720 11.9578 12.5548 0.0000 0.0000
 0.4594 32.3623 -2.9165 14.5452 -38.6536 5.6175 -3.3786 5.7477 -11.2260 10.5738 -18.3729 20.6818 11.5231 13.4023 20.7735 -26.0520 13.1360 -78.6330 -129.4722 -0.0000 41.8770 -12.9047 43.6869 18.3512 33.1476 -0.0000 26.2537 -18.4064 -13.6375 -19.5905 14.9396 14.0926 89.8209 28.1692 0.0000 20.4377 0.1062 -2.5064 2.4273 32.8623 0.0000 -24.3270 -10.3412 17.2235 -7.5705 5.6578 0.0000 -0.0000 -22.3085 33.5092 14.5037 4.2515 -0.0000 -0.0000 -46.8325 -32.7791 -32.8293 105.8454 0.0000 -0.0000 25.8317 -20.0370 11.7181 12.8255 -0.0000 -0.0000
 0.4571 32.3601 -2.9116 14.4884 -38.5885 5.5955 -3.3547 5.6961 -11.2733 10.5656 -18.4080 20.6747 11.4516 13.3589 20.7901 -26.0682 13.3034 -78.4828 -129.3779 -0.0000 41.7807 -12.7767 43.7124 18.1674 33.1476 -0.0000 26.2537 -18.5048 -13.6203 -19.6062 14.9607 14.2096 89.8581 28.1806 0.0000 20.4900 0.1070 -2.4277 2.5242 32.8623 0.0000 -24.3270 -10.3054 17.1886 -7.6061 5.6849 0.0000 -0.0000 -22.3416 33.5562 14.4703 4.3185 -0.0000 0.0000 -46.6156 -32.6651 -32.7136 105.9937 0.0000 -0.0000 25.9152 -19.9741 11.0447 11.3099 -0.0000 -0.0000
 0.4536 32.3586 -2.9079 14.4476 -38.5163 5.5867 -3.3455 5.6505 -11.3346 10.5717 -18.4445 20.6796 11.4166 13.3364 20.8110 -26.1509 13.4468 -78.3372 -129.2507 -0.0000 41.6245 -12.7857 43.6997 18.1838 33.1476 -0.0000 26.2537 -18.4944 -13.6421 -19.5706 14.9007 14.3342 89.8823 28.2322 0.0000 20.5642 0.0979 -2.4918 2.2509 32.8623 0.0000 -24.3270 -10.2878 17.1402 -7.6244 5.7309 0.0000 -0.0000 -22.3347 33.4847 14.4939 4.3012 -0.0000 0.0000 -46.4173 -32.5479 -32.6028 106.1172 0.0000 -0.0000 25.9698 -19.9602 10.6817 10.6867 -0.0000 -0.0000
 0.4522 32.3573 -2.9065 14.4365 -38.4377 5.5779 -3.3624 5.5844 -11.3556 10.5625 -18.4731 20.6292 11.3718 13.3174 20.8165 -26.2111 13.5462 -78.1910 -129.1197 -0.0000 41.4610 -12.9264 43.7360 18.3655 33.1476 -0.0000 26.2537 -18.5031 -13.6472 -19.5740 14.8545 14.4354 89.9247 28.3022 0.0000 20.5486 0.1071 -2.4892 2.4635 32.8623 0.0000 -24.3270 -10.2985 17.1237 -7.6396 5.7650 -0.0000 -0.0000 -22.3491 33.4830 14.4478 4.3407 0.0000 -0.0000 -46.2357 -32.4244 -32.4450 106.2389 0.0000 0.0000 25.8557 -20.1683 10.9955 11.0519 -0.0000 -0.0000
 0.4507 32.3571 -2.9068 14.4387 -38.3516 5.5746 -3.3837 5.5328 -11.3954 10.5514 -18.5007 20.6339 11.3392 13.3203 20.8862 -26.2175 13.5649 -78.1298 -128.9729 -0.0000 41.3457 -13.0385 43.6205 18.5557 33.1476 -0.0000 26.2537 -18.5126 -13.6782 -19.5467 14.8144 14.5247 89.9335 28.3805 0.0000 20.5429 0.1051 -2.4440 2.4630 32.8623 0.0000 -24.3270 -10.3215 17.1121 -7.6453 5.8019 -0.0000 -0.0000 -22.3297 33.3855 14.3606 4.2702 0.0000 0.0000 -46.1104 -32.3533 -32.3311 106.3232 0.0000 0.0000 25.9225 -20.2404 10.9497 10.9494 0.0000 -0.0000
 0.4507 32.3557 -2.9066 14.4421 -38.2709 5.5892 -3.3992 5.4910 -11.4422 10.5319 -18.5539 20.6098 11.3399 13.2953 20.9200 -26.2951 13.5911 -77.9801 -128.8454 -0.0000 41.1656 -13.5088 43.6400 19.1936 33.1476 -0.0000 26.2537 -18.5017 -13.7118 -19.5327 14.7603 14.5688 89.9597 28.4782 0.0000 20.5782 0.1048 -2.4701 2.4313 32.8623 0.0000 -24.3270 -10.3295 17.0762 -7.6709 5.8066 -0.0000 -0.0000 -22.3277 33.3944 14.4156 4.3179 0.0000 -0.0000 -45.9910 -32.2563 -32.2523 106.4138 -0.0000 -0.0000 25.8282 -20.3826 11.3957 11.9153 -0.0000 -0.0000
 0.4494 32.3557 -2.9081 14.4485 -38.1842 5.5887 -3.4193 5.4334 -11.4732 10.5122 -18.5746 20.5934 11.3011 13.2688 20.9634 -26.3101 13.6093 -77.9024 -128.7527 -0.0000 41.1160 -13.2929 43.5842 18.9162 33.1476 -0.0000 26.2537 -18.5019 -13.7285 -19.5098 14.7289 14.5626 89.9753 28.5799 0.0000 20.7725 0.1052 -2.4266 2.4830 32.8623 0.0000 -24.3270 -10.3391 17.0303 -7.6735 5.7979 -0.0000 -0.0000 -22.2900 33.3291 14.3941 4.3170 0.0000 -0.0000 -45.8793 -32.1950 -32.1623 106.4941 -0.0000 0.0000 25.7584 -20.3668 11.5444 11.9097 -0.0000 0.0000
 0.4529 32.3552 -2.9118 14.5330 -38.0953 5.6392 -3.5105 5.3816 -11.4896 10.4871 -18.5970 20.5629 11.2570 13.2422 20.9812 -26.3570 13.6404 -77.8540 -128.6905 -0.0000 41.0289 -13.4819 43.7535 19.1201 33.1476 -0.0000 26.2537 -18.5157 -13.7437 -19.5278 14.7093 14.6031 90.0054 28.6786 0.0000 20.8132 0.1042 -2.4594 2.4262 32.8623 0.0000 -24.3270 -10.4212 17.0195 -7.6868 5.8052 -0.0000 -0.0000 -22.2775 33.2689 14.3857 4.3459 0.0000 0.0000 -45.8866 -32.1617 -32.1097 106.5667 -0.0000 0.0000 25.7996 -20.1694 10.9210 11.5106 0.0000 -0.0000
